<svg xmlns="http://www.w3.org/2000/svg" width="512" height="512" style="shape-rendering:geometricPrecision;text-rendering:geometricPrecision;image-rendering:optimizeQuality;fill-rule:evenodd;clip-rule:evenodd">

  <style>
    @media (prefers-color-scheme: dark) {
      svg { filter: invert(0%) hue-rotate(0deg) saturate(100%) contrast(100%) brightness(1); }
    }
  </style><path fill="#f9f9f9" d="M-.5-.5h512v512H-.5z" style="opacity:1"/><path fill="#f4b973" d="M205.5 43.5q.034-3.64 1.5-7 .882 3.96-1.5 7" style="opacity:1"/><path fill="#673609" d="M268.5 47.5q5.28 1.025 7.5 6 1.891 33.95-29.5 47.5-2 1-4 0 17.322-10.822 27.5-28.5 2.052-4.858 1-10-2.724 6.244-8.5 2.5a6.3 6.3 0 0 1-1-3 41.8 41.8 0 0 0 7-14.5" style="opacity:1"/><path fill="#f98f08" d="M205.5 43.5q-8.542 34.698 6.5 67 16.379 30.305 49.5 39.5 30.795 4.446 39-25.5l-1-1q-9.18 4.068-19 2a81.3 81.3 0 0 1 0-24q17.762 2.213 30.5-10l1 1q1 11.5 0 23l-7 6q.532 16.003-5 31-6.554 12.055-19.5 16.5 36.234 28.7 32.5 74.5-14.536 48.141-60.5 27.5a127.8 127.8 0 0 1-23-19.5 128 128 0 0 0-23.5 19q-6.172 9.014-7 20-7.327-19.281 6-35a234 234 0 0 0 13.5-12q-14.845-10.69-15.5-29-3.51-24.237 18.5-34.5l8-1q-10.095-14.516-2.5-30.5 2.16 12.812 10 23a1141 1141 0 0 1 34 30q10.59 12.683 7 29-6.652 35.955-41.5 24.5 21.716 19.9 47 5 18.168-18.474 10.5-43.5-3.956-10.916-11-20l-50-46a200.5 200.5 0 0 1-27-38q-12.651-34.545-.5-69" style="opacity:1"/><path fill="#68380d" d="M185.5 102.5q7.822-1.197 13.5 4 2.806 7.45-2.5.5-9.174-3.968-15.5 3.5-.473-2.112 1-4a19.6 19.6 0 0 0 3.5-4" style="opacity:1"/><path fill="#6b3d11" d="M180.5 113.5q9.755 9.918 19.5 0-2.665 11.466-14.5 7.5-4.113-2.829-5-7.5" style="opacity:1"/><path fill="#613100" d="M173.5 124.5h3v3h-3z" style="opacity:1"/><path fill="#653103" d="M198.5 124.5q1.356 1.064 1 3-7.793-.481-15 1 .098.657-.5 1-.41-2.743-2.5-4.5a145 145 0 0 1 17-.5" style="opacity:1"/><path fill="#bfad9b" d="M184.5 128.5q7.207-1.481 15-1 .356-1.936-1-3 .424-1.184 1.5-2a12.5 12.5 0 0 1 0 7 62.8 62.8 0 0 0-15.5-1" style="opacity:1"/><path fill="#6a3d13" d="M197.5 130.5q1.259 1.711 2 4-13.234 2.764-26 0a7.25 7.25 0 0 0-2-2.5q13.265-.255 26-1.5" style="opacity:1"/><path fill="#6b3c12" d="M180.5 138.5q.808 3.813 4 6.5 5.5 1 11 0 4.594-1.6 4.5-6.5.88 10.627-10 11-9.906-1.15-9.5-11" style="opacity:1"/><path fill="#bdac9a" d="m196.5 151.5-14 2q-1.184-.424-2-1.5a129 129 0 0 1 16-.5" style="opacity:1"/><path fill="#653304" d="M196.5 151.5q2.432.43 3 3-7.827 1.034-15.5 2l-1.5-3z" style="opacity:1"/><path fill="#a0876e" d="m197.5 162.5-15 2q-.814-.09-1-1a65 65 0 0 1 16-1" style="opacity:1"/><path fill="#653505" d="m182.5 164.5 15-2q4.053-4.155 2.5 2l-1.5 1.5q-7.377.292-14.5 1.5z" style="opacity:1"/><path fill="#6c3d13" d="M199.5 170.5q2.5 4.212-2 6.5a72.5 72.5 0 0 1-17 0q-1.823-2.61-5-3l23-1q1.129-1.006 1-2.5" style="opacity:1"/><path fill="#6c3d10" d="M174.5 180.5a12.9 12.9 0 0 1 5 .5 15.8 15.8 0 0 0-5.5 3.5q-.868-2.143.5-4" style="opacity:1"/><path fill="#6a3c10" d="M191.5 179.5q8.555-1.155 9.5 7-3.306-4.053-8.5-2.5a93.3 93.3 0 0 1-12 11q-5.68.815-6.5-4.5 3.817 1.946 7.5-.5a145 145 0 0 0 10-10.5" style="opacity:1"/><path fill="#faf9f8" d="M224.5 192.5q18.533-.48 25 17-4.491 17.443-20 27a252 252 0 0 1-15.5-11 42.9 42.9 0 0 1-7.5-14.5q5.245-12.994 18-18.5" style="opacity:1"/><path fill="#b29a88" d="M186.5 191.5q7.08-.412 1 2.5 1.426 1.077.5 2.5-1.904-2.107-1.5-5" style="opacity:1"/><path fill="#faf8f6" d="M253.5 201.5q18.086 11.337 21 32.5.106 5.907-5 9-14.352 9.206-28-1 16.992-16.746 12-40.5" style="opacity:1"/><path fill="#f98f08" d="M219.5 278.5h3a79 79 0 0 0 3 13.5q-8.341 6.852-13.5 16.5-4.39 17.315 4 33 15.728 20.226 36.5 35.5 41.768 36.831 23.5 89.5 13.187-42.927-19.5-73.5a1083 1083 0 0 1-44.5-33.5q-27.495-30.482-9-67 7.216-8.486 16.5-14" style="opacity:1"/><path fill="#653506" d="m298.5 283.5 2 30q.166.926 1 1.5a12.5 12.5 0 0 1-7 0l1.5-1.5q1.19-13.803-.5-27.5.945-1.966 3-2.5" style="opacity:1"/><path fill="#886338" d="m300.5 313.5-2-30q.425-1.184 1.5-2 .75 15.992.5 32" style="opacity:1"/><path fill="#663609" d="M265.5 284.5q2.682-.428 5 1a125.3 125.3 0 0 0-.5 27q3.349 3.692-2 3l-3.5-.5a276 276 0 0 0 1-30.5" style="opacity:1"/><path fill="#85664c" d="M289.5 294.5q.09-.814 1-1a82 82 0 0 1 1 18z" style="opacity:1"/><path fill="#643405" d="M277.5 293.5a197 197 0 0 1 1.5 20q4.653 1.761 0 2-2.566.091-4-2a166 166 0 0 0-1.5-17q2.526-.975 4-3" style="opacity:1"/><path fill="#653505" d="m289.5 294.5 2 17q-3.888 6.214-5-1.5 1.966-6.703 0-13.5a7.5 7.5 0 0 1 3-2" style="opacity:1"/><path fill="#68380d" d="M268.5 320.5q0 1-1 1l-5-2.5a17.8 17.8 0 0 0-4.5-5.5l-11-24a20.23 20.23 0 0 0-7.5-7.5q5.629.067 9.5 4.5a89.7 89.7 0 0 1 8 16q2.5-1.26.5 1.5 3.1 9.976 11 16.5" style="opacity:1"/><path fill="#7c6044" d="M241.5 313.5q1.884-.058 3 1.5-2 1-4 0 .834-.574 1-1.5" style="opacity:1"/><path fill="#a79581" d="M247.5 335.5q-1.479-6.705-1-14 1.111 5.732 2 13.5-.343.598-1 .5" style="opacity:1"/><path fill="#6c3c11" d="M246.5 321.5q-.479 7.295 1 14a39.4 39.4 0 0 0 0 17.5 12.9 12.9 0 0 1-5 .5 219 219 0 0 0-1-29 24.4 24.4 0 0 0 5-3" style="opacity:1"/><path fill="#a8917b" d="M268.5 320.5q5.429 1.02 11 1.5-6.271 2.789-12-.5 1 0 1-1" style="opacity:1"/><path fill="#683e15" d="M263.5 323.5h4v4q-4.5.5-4-4" style="opacity:1"/><path fill="#653504" d="M281.5 332.5q3.476-2.163 6.5 1 .28 9.871 1.5 19.5-2.8 1.067-4.5-1.5l-1-18q-1.006-1.129-2.5-1" style="opacity:1"/><path fill="#653302" d="M266.5 332.5q1.025 10.101 2 20.5-2.5 1-5 0 1.974-8.704 0-17.5 1.905-1.182 3-3" style="opacity:1"/><path fill="#6c3d11" d="M275.5 332.5a19.6 19.6 0 0 1 2 3.5q-2 8.5 0 17a12.9 12.9 0 0 1-5 .5 91 91 0 0 1 1-19q1.533-.533 2-2" style="opacity:1"/><path fill="#663609" d="M292.5 332.5q3.09-1.966 6.5 0 .487 10.536 1.5 21-4.332.42-4.5-4a145 145 0 0 1-.5-17z" style="opacity:1"/><path fill="#704118" d="M251.5 332.5q4.212-2.5 6.5 2 .282 9.372 1.5 18.5-2.418 1.08-4.5-.5-1.06-10.51-3.5-20" style="opacity:1"/><path fill="#a6866b" d="M270.5 356.5q1.916 1.79 2 5l-1 5a25.9 25.9 0 0 1-1-10" style="opacity:1"/><path fill="#694019" d="M257.5 360.5q.09-.814 1-1 1.72 3.397.5 7-.286-3.312-1.5-6" style="opacity:1"/><path fill="#97775d" d="M264.5 359.5q1.694 3.192.5 7-2.71-3.309-.5-7" style="opacity:1"/><path fill="#97795f" d="M268.5 359.5q1.452 3.161 1 7a4.93 4.93 0 0 1-3-.5q1.095-3.231 2-6.5" style="opacity:1"/><path fill="#947453" d="M276.5 359.5q1.838.978 2 3.5l-.5 3.5q-2.028-3.14-1.5-7" style="opacity:1"/><path fill="#683b0e" d="M280.5 359.5q1.694 3.192.5 7a20.4 20.4 0 0 0-1.5-5.5q.834-.574 1-1.5" style="opacity:1"/><path fill="#784e28" d="M283.5 359.5q1.946 3.29 0 7-1.821-3.538 0-7" style="opacity:1"/><path fill="#8e7258" d="M289.5 359.5q1.838.978 2 3.5l-.5 3.5q-2.028-3.14-1.5-7" style="opacity:1"/><path fill="#653405" d="M233.5 410.5a2.43 2.43 0 0 1 2 .5q-12.626 11.232-2 24 7.284 3.743 12.5-2.5-4.083 15.174-19.5 10.5-10.375-10.137-2.5-22.5 4.044-5.791 9.5-10" style="opacity:1"/></svg>